<?xml version="1.0" encoding="UTF-8" standalone="no"?>
<!-- Uploaded to: SVG Repo, www.svgrepo.com, Generator: SVG Repo Mixer Tools -->

<svg
   width="400mm"
   height="200mm"
   viewBox="0 0 967.55908 483.77953"
   id="Layer_1"
   version="1.1"
   xml:space="preserve"
   sodipodi:docname="serBAR-landscape.svg"
   inkscape:version="1.4.3 (unknown)"
   xmlns:inkscape="http://www.inkscape.org/namespaces/inkscape"
   xmlns:sodipodi="http://sodipodi.sourceforge.net/DTD/sodipodi-0.dtd"
   xmlns:xlink="http://www.w3.org/1999/xlink"
   xmlns="http://www.w3.org/2000/svg"
   xmlns:svg="http://www.w3.org/2000/svg"><defs
   id="defs16"><linearGradient
   id="linearGradient41"
   inkscape:collect="always"><stop
     style="stop-color:#d4af37;stop-opacity:1;"
     offset="0.84686774"
     id="stop41" /><stop
     style="stop-color:#d4af37;stop-opacity:0;"
     offset="1"
     id="stop42" /></linearGradient><linearGradient
   id="linearGradient31"
   inkscape:collect="always"><stop
     style="stop-color:#0f0f0f;stop-opacity:1;"
     offset="0.82598609"
     id="stop31" /><stop
     style="stop-color:#3a110f;stop-opacity:1;"
     offset="0.99071926"
     id="stop32" /></linearGradient>

































<radialGradient
   inkscape:collect="always"
   xlink:href="#linearGradient31"
   id="radialGradient32"
   cx="-429.93396"
   cy="135.69191"
   fx="-429.93396"
   fy="135.69191"
   r="86.176575"
   gradientUnits="userSpaceOnUse"
   gradientTransform="matrix(0.21811981,0,0,0.21811981,570.51317,140.84385)" /><radialGradient
   inkscape:collect="always"
   xlink:href="#linearGradient31"
   id="radialGradient32-3"
   cx="-429.93396"
   cy="135.69191"
   fx="-429.93396"
   fy="135.69191"
   r="86.176575"
   gradientUnits="userSpaceOnUse"
   gradientTransform="matrix(0.21811981,0,0,0.21811981,295.96429,477.75625)" /><radialGradient
   inkscape:collect="always"
   xlink:href="#linearGradient41"
   id="radialGradient42"
   cx="361.07004"
   cy="360.02631"
   fx="361.07004"
   fy="360.02631"
   r="167.5"
   gradientUnits="userSpaceOnUse"
   spreadMethod="reflect"
   gradientTransform="translate(-119.2436,-107.64736)" /></defs><sodipodi:namedview
   id="namedview16"
   pagecolor="#ffffff"
   bordercolor="#666666"
   borderopacity="1.0"
   inkscape:showpageshadow="2"
   inkscape:pageopacity="0.0"
   inkscape:pagecheckerboard="0"
   inkscape:deskcolor="#d1d1d1"
   inkscape:zoom="0.3959566"
   inkscape:cx="286.64757"
   inkscape:cy="303.06351"
   inkscape:window-width="1920"
   inkscape:window-height="1008"
   inkscape:window-x="0"
   inkscape:window-y="0"
   inkscape:window-maximized="1"
   inkscape:current-layer="Layer_1"
   inkscape:document-units="mm" />

<style
   type="text/css"
   id="style1">
	.st0{fill:#232020;}
</style>

<path
   d="m 339.85257,93.948333 c 0.008,0.005 0.0173,0.01 0.0256,0.0144 h 2.1e-4 c 0.0108,0.005 0.0211,0.01 0.0319,0.015 z"
   id="path30"
   style="stroke-width:0.21812" /><g
   id="g42"
   transform="matrix(1.1189965,0,0,1.1189965,-175.97356,-107.72452)"><path
     id="path27"
     style="fill:#641e1e;fill-opacity:1;stroke-width:0.21812"
     d="m 468.91319,118.97162 c -2.94549,0.21987 -5.25232,2.66265 -5.25232,5.64304 0,0.16402 0.007,0.32478 0.021,0.48531 v 6.53651 c -1.94693,0.659 -3.57974,1.34344 -5.14654,2.12285 l -4.61459,-4.65659 c -1.04349,-1.22845 -2.58958,-1.99961 -4.31359,-1.99961 -1.41977,0 -2.71413,0.52291 -3.70859,1.38424 -4.3e-4,3.7e-4 -8.7e-4,7.2e-4 -10e-4,0.001 l -11.08734,11.08758 c -0.85852,0.98764 -1.38206,2.28595 -1.38206,3.70285 0,1.72402 0.77127,3.27 1.98925,4.30651 l 0.007,0.007 4.63804,4.63804 c -0.72241,1.40644 -1.44493,3.10952 -2.04869,4.86844 l -0.0837,0.286 -6.56104,-0.0316 c -0.1396,-0.0105 -0.30003,-0.0174 -0.46405,-0.0174 -2.98039,0 -5.42344,2.30678 -5.64331,5.23133 v 0.0174 15.68717 c 0.21638,2.94549 2.66292,5.25233 5.64331,5.25233 0.16402,0 0.3245,-0.006 0.48504,-0.0204 h 6.54005 c 0.65969,1.9491 1.34484,3.5864 2.1283,5.15499 l -4.6514,4.59933 c -1.22496,1.04698 -1.99634,2.59644 -1.99634,4.32395 0,1.42039 0.52006,2.7186 1.38206,3.71322 l 11.0873,11.08403 c 0.86899,0.85852 2.06254,1.39242 3.38522,1.39242 h 0.0698 c 1.79731,-0.0454 3.40981,-0.80622 4.56497,-2.01024 l 0.004,-0.004 4.64159,-4.64159 c 1.40644,0.72241 3.10952,1.44494 4.86843,2.04869 l 0.28601,0.0872 -0.0313,6.55395 c -0.0105,0.1396 -0.0175,0.30024 -0.0175,0.46078 0,2.98039 2.30678,5.42693 5.23133,5.64331 h 0.0174 15.69072 c 2.942,-0.22336 5.24524,-2.66292 5.24524,-5.64331 0,-0.16402 -0.006,-0.32449 -0.0204,-0.48504 v -6.5436 c 1.94732,-0.65909 3.58656,-1.34679 5.15717,-2.12966 l 4.60396,4.64595 c 1.15866,1.20053 2.76745,1.96128 4.5508,2.00316 h 0.007 0.007 0.0665 c 1.31919,0 2.5128,-0.52698 3.38876,-1.37852 l 11.0873,-11.08758 c 0.85154,-0.86899 1.37851,-2.06243 1.37851,-3.37813 v -0.0872 c -0.0419,-1.79033 -0.79902,-3.39564 -1.99607,-4.5508 l -0.004,-0.003 -4.64513,-4.64868 c 0.7189,-1.39946 1.4379,-3.0955 2.04514,-4.84744 l 0.0873,-0.28956 6.5575,0.0314 c 0.1396,0.0105 0.30024,0.0174 0.46078,0.0174 2.98388,0 5.42665,-2.30684 5.64303,-5.23488 v -0.0174 -15.68717 c -0.21987,-2.94549 -2.6627,-5.24878 -5.64658,-5.24878 -0.16402,0 -0.32473,0.007 -0.48177,0.0207 h 0.021 l 0.003,0.0175 h -6.56105 c -0.65887,-1.94727 -1.34632,-3.58317 -2.12912,-5.15036 l 4.66313,-4.61432 c 1.22147,-1.04698 1.98925,-2.58957 1.98925,-4.31359 0,-1.41691 -0.52005,-2.71505 -1.38206,-3.70968 l -11.0843,-11.0843 c -0.98765,-0.85852 -2.28246,-1.37852 -3.70286,-1.37852 -1.72402,0 -3.27,0.77128 -4.3065,1.98926 l -0.007,0.007 -4.64868,4.64159 c -1.40294,-0.71893 -3.09904,-1.4414 -4.85098,-2.04515 l -0.28628,-0.0873 0.0316,-6.56104 c 0.0105,-0.1396 0.0174,-0.3003 0.0174,-0.46432 0,-2.98039 -2.30351,-5.42317 -5.22806,-5.64304 h -0.0174 z m 0.0714,5.29568 c 0.004,0.008 0.007,0.0171 0.01,0.0273 -0.002,-0.0102 -0.005,-0.0195 -0.01,-0.0273 z m -0.0755,9.27445 c -0.002,0.0204 -0.008,0.0398 -0.0134,0.0594 0.006,-0.0196 0.011,-0.0391 0.0134,-0.0594 z m -1.24928,2.15421 -8.7e-4,5.4e-4 c -0.0797,0.0519 -0.16109,0.10015 -0.24729,0.14478 0.0864,-0.0448 0.1682,-0.0933 0.24811,-0.14532 z m -22.16397,14.8027 c 0.0706,0.13307 0.12983,0.27313 0.17641,0.41906 -0.0466,-0.14593 -0.10584,-0.28599 -0.17641,-0.41906 z m 0.24948,1.85947 c -0.0201,0.0898 -0.0449,0.17733 -0.0739,0.26256 0.029,-0.0851 0.0538,-0.17288 0.0739,-0.26256 z m 30.99237,1.51621 c 9.15056,0.0105 16.56663,7.42654 16.5771,16.5771 0,9.15405 -7.42305,16.57711 -16.5771,16.57711 -9.15406,0 -16.57711,-7.42306 -16.57711,-16.57711 0,-9.15405 7.42305,-16.5771 16.57711,-16.5771 z m -35.31796,8.16313 -0.001,8.1e-4 c -10e-5,7e-5 -1.8e-4,2e-4 -2.2e-4,2.6e-4 l -0.005,0.002 c 2.1e-4,-2.1e-4 6.5e-4,-6.1e-4 8.7e-4,-8.3e-4 9e-5,-7e-5 1.8e-4,-2e-4 2.2e-4,-2.6e-4 z m -0.21621,0.14341 -0.006,0.006 c -4.4e-4,2.6e-4 -8.7e-4,5.5e-4 -10e-4,8.1e-4 l 0.005,-0.005 c 1.1e-4,-8e-5 1.7e-4,-2e-4 2.2e-4,-2.7e-4 4.4e-4,-3.9e-4 0.001,-6.9e-4 0.002,-0.001 z m -10.61017,16.0299 c 0.011,5e-5 0.0231,8.7e-4 0.0357,0.002 0.028,0.002 0.0606,0.008 0.0962,0.0136 -0.0358,-0.006 -0.0682,-0.0112 -0.0962,-0.0136 -0.0145,-0.001 -0.028,-0.002 -0.0403,-0.002 0.002,-2e-5 0.003,-2.2e-4 0.005,-2.2e-4 z m -0.0273,0.002 c -0.0177,0.002 -0.0325,0.006 -0.0442,0.0131 -0.0199,0.0121 -0.031,0.0328 -0.0322,0.0646 v -0.007 -8.7e-4 c 0.002,-0.0281 0.0135,-0.0461 0.0322,-0.0573 0.0116,-0.007 0.0266,-0.0111 0.0442,-0.0131 z m 0.16904,0.0153 c 0.0753,0.013 0.16645,0.031 0.27156,0.0455 0.0525,0.007 0.1087,0.0137 0.16795,0.018 0.0593,0.004 0.12186,0.007 0.18731,0.006 h 8.41779 c 0.008,0 0.0163,6.5e-4 0.0243,10e-4 -0.008,-8.7e-4 -0.0159,-10e-4 -0.024,-10e-4 h -8.41779 c -0.0656,8.7e-4 -0.12818,-0.002 -0.18758,-0.006 -0.0594,-0.004 -0.11532,-0.0107 -0.16795,-0.018 -0.10541,-0.0146 -0.19616,-0.0325 -0.27156,-0.0455 z m 9.22101,0.10742 c 0.008,0.002 0.0172,0.003 0.0259,0.004 h 0.0142 c 0.0463,0.006 0.0905,0.0143 0.13496,0.0223 -0.0443,-0.008 -0.0885,-0.0159 -0.13468,-0.0221 h -0.0142 c -0.009,-8.7e-4 -0.0175,-0.002 -0.0262,-0.004 z m 0.29556,0.0518 c 0.0341,0.008 0.07,0.0157 0.10033,0.0251 l 0.0174,0.004 c 0.10017,0.0194 0.19721,0.0449 0.29037,0.0753 -0.093,-0.0303 -0.19009,-0.0556 -0.2901,-0.075 l -0.0174,-0.004 c -0.0304,-0.009 -0.0664,-0.0172 -0.1006,-0.0254 z m 74.5847,19.19929 c 0.006,0.006 0.0119,0.0132 0.0177,0.0185 -0.006,-0.005 -0.0117,-0.0121 -0.0177,-0.0185 z m 0.14205,0.0262 -10.82365,10.93216 h -2.2e-4 c -9e-5,-1e-5 -1.8e-4,1e-5 -2.1e-4,0 z m -0.0106,0.009 c -0.003,0.003 -0.007,0.005 -0.01,0.007 0.003,-0.002 0.007,-0.004 0.01,-0.007 z m -0.0483,0.0174 c 0.002,8e-5 0.003,4e-5 0.005,0 -0.002,5e-5 -0.003,8e-5 -0.005,0 z m -56.83521,3.74811 c 0.0632,0 0.1254,0.003 0.18731,0.008 -0.0617,-0.005 -0.12406,-0.007 -0.18704,-0.007 -0.0192,-8.8e-4 -0.0374,-6.6e-4 -0.0553,4.3e-4 0.0177,-0.001 0.0361,-0.002 0.0551,-8.7e-4 z m -0.0556,8.7e-4 c -0.0535,0.004 -0.1032,0.0143 -0.16059,0.0169 -0.15702,0.007 -0.31002,0.0277 -0.45805,0.0613 0.14789,-0.0336 0.30092,-0.0546 0.45778,-0.0616 0.0576,-0.003 0.10717,-0.013 0.16086,-0.0166 z m -0.61919,0.0782 c -0.44388,0.10094 -0.84213,0.31624 -1.16394,0.61183 h -4.3e-4 c 0.32194,-0.29577 0.72034,-0.51092 1.16448,-0.61183 z m 37.09728,0.0794 c 1.6e-4,-7e-5 4.3e-4,6e-5 4.3e-4,0 -0.0944,0.0371 -0.18608,0.0796 -0.27428,0.12732 l -0.0142,0.007 c -1.10829,0.63009 -2.30405,1.21867 -3.55917,1.7485 1.25504,-0.5298 2.4504,-1.11845 3.55862,-1.7485 l 0.0142,-0.007 c 0.0882,-0.0477 0.17984,-0.0902 0.27429,-0.12732 z m -38.25876,0.53275 h 4.3e-4 c -0.0105,0.0105 -0.0233,0.0149 -0.0368,0.018 0.0133,-0.003 0.0259,-0.008 0.0363,-0.018 z m -0.0504,0.0207 c -0.0181,0.003 -0.0361,0.007 -0.0499,0.0213 l -5.95031,5.95031 c -0.18671,0.18671 -0.37514,0.30785 -0.50031,0.39943 -0.0469,0.0343 -0.085,0.0645 -0.1107,0.0924 -0.03,0.0325 -0.0433,0.062 -0.0344,0.0913 0.002,0.008 0.007,0.0161 0.0128,0.0243 -0.006,-0.008 -0.0103,-0.0162 -0.0128,-0.0243 -0.009,-0.0294 0.004,-0.0587 0.0344,-0.0913 0.0257,-0.0278 0.0639,-0.0582 0.1107,-0.0924 0.12517,-0.0916 0.31321,-0.21287 0.50004,-0.3997 l 5.95031,-5.95031 c 0.014,-0.014 0.032,-0.0175 0.0502,-0.021 z m 34.46184,1.32917 c -1.25506,0.52979 -2.56943,1.00094 -3.91553,1.39624 h -4.3e-4 c 1.34618,-0.39532 2.66094,-0.86641 3.91606,-1.39624 z m -23.63438,1.46244 c 0.003,8.7e-4 0.006,0.002 0.008,0.003 -0.003,-8.7e-4 -0.005,-0.002 -0.008,-0.002 -1.1e-4,-3e-5 -1.5e-4,-2.2e-4 -2.1e-4,-2.2e-4 z m 19.44102,0.006 c 1.6e-4,-6e-5 4.4e-4,6e-5 4.4e-4,0 -0.0303,0.0121 -0.0553,0.0315 -0.0826,0.0472 0.0272,-0.0157 0.0519,-0.0351 0.0821,-0.0472 z m -0.0823,0.0472 c -0.0109,0.006 -0.0219,0.012 -0.0341,0.0164 -0.33084,0.14476 -0.61703,0.31699 -0.87957,0.51285 -1.8e-4,1.9e-4 -6.5e-4,4.4e-4 -6.5e-4,4.4e-4 -0.12194,0.11852 -0.23009,0.24744 -0.32418,0.38335 l -0.007,0.007 c -0.0942,0.11517 -0.18497,0.2443 -0.26175,0.38389 l -0.007,0.0139 c -0.11517,0.28268 -0.2058,0.61095 -0.25466,0.95645 l -0.003,0.0245 c -0.003,0.0558 -0.0349,0.1083 -0.0349,0.16414 v 8.41761 c 0,0.44486 -0.13859,0.75861 -0.0624,0.84712 -0.0764,-0.0883 0.0622,-0.40229 0.0622,-0.84739 v -8.41752 c 0,-0.0558 0.0314,-0.10829 0.0349,-0.16413 l 0.003,-0.0245 c 0.0489,-0.3455 0.13949,-0.67377 0.25465,-0.95646 l 0.007,-0.0139 c 0.0768,-0.1396 0.16752,-0.26872 0.26175,-0.38389 l 0.007,-0.007 c 0.0941,-0.1359 0.20225,-0.26482 0.32419,-0.38334 l 2.1e-4,-2.2e-4 c 0.26254,-0.19586 0.54873,-0.36809 0.87957,-0.51285 0.0122,-0.004 0.0237,-0.0101 0.0346,-0.0164 z m -17.58564,1.78886 c 2.2e-4,8.7e-4 4.4e-4,0.002 8.8e-4,0.003 1.1e-4,4.4e-4 1.6e-4,6.6e-4 2.2e-4,10e-4 l 0.003,0.0139 c -6.5e-4,-0.003 -0.002,-0.006 -0.002,-0.01 z m -19.23107,1.94808 c 0.003,0.003 0.006,0.007 0.009,0.0104 -0.003,-0.003 -0.006,-0.007 -0.009,-0.0104 z m 34.95124,7.9949 c 0.002,0.001 0.003,0.003 0.005,0.004 -0.002,-0.001 -0.003,-0.003 -0.005,-0.004 z m 0.01,0.008 c 0.003,0.002 0.007,0.004 0.0112,0.006 -0.004,-0.002 -0.008,-0.004 -0.0112,-0.006 z m 0.0308,0.0114 c 0.002,4.4e-4 0.005,6.6e-4 0.007,8.8e-4 -0.002,-2.2e-4 -0.005,-4.4e-4 -0.007,-8.8e-4 z m 0.015,0.002 c 9e-5,0 1.8e-4,-1e-5 2.2e-4,0 8.7e-4,5e-5 0.002,2.2e-4 0.003,2.2e-4 l -15.39054,0.0804 v -2.2e-4 z" /><circle
     style="fill:none;fill-opacity:1;stroke:url(#radialGradient32);stroke-width:9.6;stroke-linecap:square;stroke-linejoin:round;stroke-miterlimit:0;stroke-dasharray:none;paint-order:fill markers stroke"
     id="path31"
     cx="476.73605"
     cy="170.44095"
     r="16.702868" /></g><path
   d="m 65.303699,430.86073 c 0.008,0.005 0.0172,0.01 0.0256,0.0144 h 2.1e-4 c 0.0108,0.005 0.0211,0.01 0.0319,0.015 z"
   id="path30-5"
   style="stroke-width:0.21812" /><g
   id="g43"
   transform="matrix(1.1189965,0,0,1.1189965,-135.6232,-169.57589)"><path
     id="path27-6"
     style="fill:#641e1e;fill-opacity:1;stroke-width:0.21812"
     d="m 194.36431,455.88402 c -2.94549,0.21987 -5.25232,2.66265 -5.25232,5.64304 0,0.16402 0.007,0.32478 0.021,0.48531 v 6.53651 c -1.94693,0.659 -3.57974,1.34344 -5.14654,2.12285 l -4.61459,-4.65659 c -1.04349,-1.22845 -2.58958,-1.99961 -4.31359,-1.99961 -1.41977,0 -2.71413,0.52291 -3.70859,1.38424 -4.3e-4,3.7e-4 -8.7e-4,7.2e-4 -0.001,0.001 l -11.08734,11.08758 c -0.85852,0.98764 -1.38206,2.28595 -1.38206,3.70285 0,1.72402 0.77127,3.27 1.98925,4.30651 l 0.007,0.007 4.63804,4.63804 c -0.72241,1.40644 -1.44493,3.10952 -2.04869,4.86844 l -0.0837,0.286 -6.56104,-0.0316 c -0.1396,-0.0105 -0.30003,-0.0175 -0.46405,-0.0175 -2.98039,0 -5.42344,2.30678 -5.64331,5.23133 v 0.0174 15.68717 c 0.21638,2.94549 2.66292,5.25233 5.64331,5.25233 0.16402,0 0.3245,-0.007 0.48504,-0.0204 h 6.54005 c 0.65969,1.9491 1.34484,3.5864 2.1283,5.15499 l -4.6514,4.59933 c -1.22496,1.04698 -1.99634,2.59644 -1.99634,4.32395 0,1.42039 0.52006,2.7186 1.38206,3.71322 l 11.0873,11.08403 c 0.86899,0.85852 2.06254,1.39242 3.38522,1.39242 h 0.0698 c 1.79731,-0.0454 3.40981,-0.80622 4.56497,-2.01024 l 0.004,-0.004 4.64159,-4.64159 c 1.40644,0.72241 3.10952,1.44494 4.86843,2.04869 l 0.28601,0.0873 -0.0314,6.55395 c -0.0105,0.1396 -0.0174,0.30024 -0.0174,0.46078 0,2.98039 2.30678,5.42693 5.23133,5.64331 h 0.0175 15.69072 c 2.942,-0.22336 5.24524,-2.66292 5.24524,-5.64331 0,-0.16402 -0.006,-0.32449 -0.0204,-0.48504 v -6.5436 c 1.94732,-0.65909 3.58656,-1.34679 5.15717,-2.12966 l 4.60396,4.64595 c 1.15866,1.20053 2.76745,1.96128 4.5508,2.00316 h 0.007 0.007 0.0665 c 1.31919,0 2.5128,-0.52698 3.38876,-1.37852 l 11.0873,-11.08758 c 0.85154,-0.86899 1.37851,-2.06243 1.37851,-3.37813 v -0.0872 c -0.0419,-1.79033 -0.79902,-3.39564 -1.99607,-4.5508 l -0.004,-0.003 -4.64513,-4.64868 c 0.7189,-1.39946 1.4379,-3.0955 2.04514,-4.84744 l 0.0872,-0.28956 6.5575,0.0314 c 0.1396,0.0105 0.30024,0.0175 0.46078,0.0175 2.98388,0 5.42665,-2.30684 5.64303,-5.23488 v -0.0175 -15.68717 c -0.21987,-2.94549 -2.6627,-5.24878 -5.64658,-5.24878 -0.16402,0 -0.32473,0.007 -0.48177,0.0207 h 0.021 l 0.003,0.0174 h -6.56105 c -0.65887,-1.94727 -1.34632,-3.58317 -2.12912,-5.15036 l 4.66313,-4.61432 c 1.22147,-1.04698 1.98925,-2.58957 1.98925,-4.31359 0,-1.41691 -0.52005,-2.71505 -1.38206,-3.70968 l -11.0843,-11.0843 c -0.98765,-0.85852 -2.28246,-1.37852 -3.70286,-1.37852 -1.72402,0 -3.27,0.77128 -4.3065,1.98926 l -0.007,0.007 -4.64868,4.64159 c -1.40294,-0.71893 -3.09904,-1.4414 -4.85098,-2.04515 l -0.28628,-0.0873 0.0316,-6.56104 c 0.0105,-0.1396 0.0174,-0.3003 0.0174,-0.46432 0,-2.98039 -2.30351,-5.42317 -5.22806,-5.64304 h -0.0174 z m 0.0714,5.29568 c 0.004,0.008 0.007,0.0171 0.01,0.0273 -0.002,-0.0102 -0.005,-0.0195 -0.01,-0.0273 z m -0.0755,9.27445 c -0.002,0.0204 -0.008,0.0398 -0.0134,0.0594 0.006,-0.0196 0.011,-0.0391 0.0134,-0.0594 z m -1.24928,2.15421 -8.7e-4,5.4e-4 c -0.0797,0.0519 -0.16109,0.10015 -0.24729,0.14478 0.0864,-0.0447 0.1682,-0.0932 0.24811,-0.14532 z m -22.16397,14.8027 c 0.0706,0.13307 0.12983,0.27313 0.17641,0.41906 -0.0466,-0.14593 -0.10584,-0.28599 -0.17641,-0.41906 z m 0.24948,1.85947 c -0.0201,0.0898 -0.0449,0.17733 -0.0739,0.26256 0.029,-0.0851 0.0538,-0.17288 0.0739,-0.26256 z m 30.99237,1.51621 c 9.15056,0.0105 16.56663,7.42654 16.5771,16.5771 0,9.15405 -7.42305,16.57711 -16.5771,16.57711 -9.15406,0 -16.57711,-7.42306 -16.57711,-16.57711 0,-9.15405 7.42305,-16.5771 16.57711,-16.5771 z m -35.31796,8.16313 -10e-4,8.1e-4 c -1e-4,7e-5 -1.8e-4,2e-4 -2.2e-4,2.6e-4 l -0.005,0.002 c 2.1e-4,-2.1e-4 6.5e-4,-6.1e-4 8.7e-4,-8.3e-4 9e-5,-7e-5 1.8e-4,-2e-4 2.2e-4,-2.6e-4 z m -0.21621,0.14341 -0.006,0.006 c -4.4e-4,2.6e-4 -8.7e-4,5.5e-4 -0.001,8.1e-4 l 0.005,-0.005 c 1.1e-4,-8e-5 1.7e-4,-2e-4 2.2e-4,-2.7e-4 4.4e-4,-3.9e-4 0.001,-6.9e-4 0.002,-0.001 z m -10.61017,16.0299 c 0.011,5e-5 0.0231,8.7e-4 0.0357,0.002 0.028,0.002 0.0606,0.008 0.0962,0.0136 -0.0358,-0.006 -0.0682,-0.0112 -0.0962,-0.0136 -0.0145,-10e-4 -0.028,-0.002 -0.0403,-0.002 0.002,-2e-5 0.003,-2.2e-4 0.005,-2.2e-4 z m -0.0273,0.002 c -0.0177,0.002 -0.0325,0.006 -0.0442,0.0131 -0.0199,0.0121 -0.031,0.0328 -0.0322,0.0646 v -0.007 -8.7e-4 c 0.002,-0.0281 0.0135,-0.0461 0.0322,-0.0573 0.0116,-0.007 0.0266,-0.0112 0.0442,-0.0131 z m 0.16904,0.0153 c 0.0753,0.013 0.16645,0.031 0.27156,0.0455 0.0525,0.007 0.1087,0.0137 0.16795,0.018 0.0593,0.004 0.12186,0.007 0.18731,0.006 h 8.41779 c 0.008,0 0.0163,6.5e-4 0.0243,10e-4 -0.008,-8.7e-4 -0.0159,-10e-4 -0.024,-10e-4 h -8.41779 c -0.0656,8.7e-4 -0.12818,-0.002 -0.18758,-0.006 -0.0594,-0.004 -0.11532,-0.0107 -0.16795,-0.018 -0.10541,-0.0146 -0.19616,-0.0326 -0.27156,-0.0455 z m 9.22101,0.10742 c 0.008,0.002 0.0172,0.003 0.0259,0.004 h 0.0142 c 0.0463,0.006 0.0906,0.0143 0.13496,0.0223 -0.0443,-0.008 -0.0885,-0.0159 -0.13468,-0.0221 h -0.0142 c -0.009,-8.7e-4 -0.0175,-0.002 -0.0262,-0.004 z m 0.29556,0.0518 c 0.0341,0.008 0.07,0.0157 0.10033,0.0251 l 0.0174,0.004 c 0.10017,0.0194 0.19721,0.0449 0.29037,0.0752 -0.093,-0.0303 -0.19009,-0.0556 -0.2901,-0.075 l -0.0174,-0.004 c -0.0304,-0.009 -0.0664,-0.0172 -0.1006,-0.0254 z m 74.5847,19.19929 c 0.006,0.006 0.0119,0.0132 0.0177,0.0185 -0.006,-0.005 -0.0117,-0.0122 -0.0177,-0.0185 z m 0.14205,0.0262 -10.82365,10.93216 h -2.2e-4 c -9e-5,-10e-6 -1.8e-4,10e-6 -2.1e-4,0 z m -0.0106,0.009 c -0.003,0.003 -0.007,0.005 -0.01,0.007 0.003,-0.002 0.006,-0.004 0.01,-0.007 z m -0.0483,0.0174 c 0.002,8e-5 0.003,4e-5 0.005,0 -0.002,5e-5 -0.003,8e-5 -0.005,0 z m -56.83521,3.74811 c 0.0632,0 0.1254,0.003 0.18731,0.008 -0.0617,-0.005 -0.12406,-0.007 -0.18704,-0.007 -0.0192,-8.8e-4 -0.0375,-6.6e-4 -0.0553,4.3e-4 0.0177,-10e-4 0.0361,-0.002 0.0551,-8.7e-4 z m -0.0556,8.7e-4 c -0.0535,0.004 -0.1032,0.0143 -0.16059,0.0169 -0.15702,0.007 -0.31002,0.0277 -0.45805,0.0613 0.14789,-0.0336 0.30092,-0.0546 0.45778,-0.0616 0.0576,-0.003 0.10717,-0.0131 0.16086,-0.0167 z m -0.61919,0.0782 c -0.44388,0.10094 -0.84213,0.31624 -1.16394,0.61183 h -4.3e-4 c 0.32194,-0.29577 0.72034,-0.51092 1.16448,-0.61183 z m 37.09728,0.0794 c 1.6e-4,-7e-5 4.3e-4,6e-5 4.3e-4,0 -0.0944,0.0371 -0.18608,0.0796 -0.27428,0.12732 l -0.0142,0.007 c -1.10829,0.63009 -2.30405,1.21867 -3.55917,1.7485 1.25504,-0.5298 2.4504,-1.11845 3.55862,-1.7485 l 0.0142,-0.007 c 0.0882,-0.0477 0.17984,-0.0902 0.27429,-0.12732 z m -38.25876,0.53275 h 4.3e-4 c -0.0105,0.0105 -0.0233,0.0149 -0.0368,0.018 0.0133,-0.003 0.0259,-0.008 0.0363,-0.018 z m -0.0504,0.0207 c -0.0181,0.003 -0.0361,0.007 -0.0499,0.0213 l -5.95031,5.95031 c -0.18671,0.18671 -0.37514,0.30785 -0.50031,0.39943 -0.0469,0.0343 -0.085,0.0645 -0.1107,0.0924 -0.03,0.0325 -0.0433,0.062 -0.0343,0.0913 0.002,0.008 0.007,0.0161 0.0128,0.0243 -0.006,-0.008 -0.0103,-0.0162 -0.0128,-0.0243 -0.009,-0.0294 0.004,-0.0587 0.0343,-0.0913 0.0257,-0.0278 0.0639,-0.0582 0.1107,-0.0924 0.12517,-0.0916 0.31321,-0.21287 0.50004,-0.3997 l 5.95031,-5.95031 c 0.014,-0.014 0.032,-0.0175 0.0502,-0.021 z m 34.46184,1.32917 c -1.25506,0.52979 -2.56943,1.00094 -3.91553,1.39624 h -4.3e-4 c 1.34618,-0.39532 2.66094,-0.86641 3.91606,-1.39624 z m -23.63438,1.46244 c 0.003,8.7e-4 0.006,0.002 0.008,0.003 -0.003,-8.7e-4 -0.005,-0.002 -0.008,-0.002 -1.1e-4,-3e-5 -1.5e-4,-2.2e-4 -2.1e-4,-2.2e-4 z m 19.44102,0.006 c 1.6e-4,-6e-5 4.4e-4,6e-5 4.4e-4,0 -0.0303,0.0121 -0.0553,0.0315 -0.0826,0.0472 0.0272,-0.0157 0.0519,-0.0351 0.0821,-0.0472 z m -0.0823,0.0472 c -0.0109,0.006 -0.0219,0.012 -0.0341,0.0164 -0.33084,0.14476 -0.61703,0.31699 -0.87957,0.51285 -1.8e-4,1.9e-4 -6.5e-4,4.4e-4 -6.5e-4,4.4e-4 -0.12194,0.11852 -0.23009,0.24744 -0.32418,0.38335 l -0.007,0.007 c -0.0942,0.11517 -0.18497,0.2443 -0.26175,0.38389 l -0.007,0.0139 c -0.11517,0.28268 -0.2058,0.61095 -0.25466,0.95645 l -0.003,0.0245 c -0.003,0.0558 -0.0349,0.1083 -0.0349,0.16414 v 8.41761 c 0,0.44486 -0.13859,0.75861 -0.0624,0.84712 -0.0764,-0.0883 0.0622,-0.40229 0.0622,-0.84739 v -8.41752 c 0,-0.0558 0.0314,-0.10829 0.0349,-0.16413 l 0.003,-0.0245 c 0.0489,-0.3455 0.13949,-0.67377 0.25465,-0.95646 l 0.007,-0.0139 c 0.0768,-0.1396 0.16752,-0.26872 0.26175,-0.38389 l 0.007,-0.007 c 0.0941,-0.1359 0.20225,-0.26482 0.32419,-0.38334 l 2.1e-4,-2.2e-4 c 0.26254,-0.19586 0.54873,-0.36809 0.87957,-0.51285 0.0122,-0.004 0.0237,-0.0101 0.0346,-0.0164 z m -17.58564,1.78886 c 2.2e-4,8.7e-4 4.4e-4,0.002 8.8e-4,0.003 1.1e-4,4.4e-4 1.6e-4,6.6e-4 2.2e-4,10e-4 l 0.003,0.0139 c -6.5e-4,-0.003 -0.002,-0.006 -0.002,-0.01 z m -19.23107,1.94808 c 0.003,0.003 0.006,0.007 0.009,0.0104 -0.003,-0.003 -0.006,-0.007 -0.009,-0.0104 z m 34.95124,7.9949 c 0.002,0.001 0.003,0.003 0.005,0.004 -0.002,-10e-4 -0.003,-0.003 -0.005,-0.004 z m 0.01,0.008 c 0.003,0.002 0.007,0.004 0.0112,0.006 -0.004,-0.002 -0.008,-0.004 -0.0112,-0.006 z m 0.0308,0.0115 c 0.002,4.4e-4 0.005,6.6e-4 0.007,8.8e-4 -0.002,-2.2e-4 -0.005,-4.4e-4 -0.007,-8.8e-4 z m 0.015,0.002 c 9e-5,0 1.8e-4,-10e-6 2.2e-4,0 8.7e-4,5e-5 0.002,2.2e-4 0.003,2.2e-4 l -15.39054,0.0804 v -2.2e-4 z" /><circle
     style="fill:none;fill-opacity:1;stroke:url(#radialGradient32-3);stroke-width:9.6;stroke-linecap:square;stroke-linejoin:round;stroke-miterlimit:0;stroke-dasharray:none;paint-order:fill markers stroke"
     id="path31-2"
     cx="202.18718"
     cy="507.35333"
     r="16.702868" /></g><circle
   style="fill:#641e1e;fill-opacity:1;stroke:#000000;stroke-width:0.64;stroke-linecap:square;stroke-linejoin:round;stroke-miterlimit:0;stroke-dasharray:none;stroke-opacity:1;paint-order:fill markers stroke"
   id="path35"
   cx="241.82646"
   cy="252.37895"
   r="171.47745" /><ellipse
   style="fill:#faf5e1;fill-opacity:1;stroke:#3a110f;stroke-width:4.97379;stroke-linecap:square;stroke-linejoin:round;stroke-miterlimit:0;stroke-dasharray:none;stroke-opacity:1;paint-order:fill markers stroke"
   id="path17"
   cx="241.82646"
   cy="252.37895"
   rx="139.94147"
   ry="139.94145"
   inkscape:transform-center-x="206.86997"
   inkscape:transform-center-y="-2.4479575" /><path
   class="st0"
   d="m 189.12643,154.07895 c -1,-1.7 -3.1,-2.2 -4.8,-1.3 -1.7,1 -2.2,3.1 -1.3,4.8 l 1.5,2.5 c 0.6,1.1 1.8,1.8 3,1.8 0.6,0 1.2,-0.2 1.7,-0.5 1.7,-1 2.2,-3.1 1.3,-4.8 z"
   id="path2"
   style="fill:#3a110f;fill-opacity:1" /><path
   class="st0"
   d="m 332.82643,199.87895 c 0.6,1.1 1.8,1.8 3,1.8 0.6,0 1.2,-0.2 1.7,-0.5 l 2.5,-1.5 c 1.7,-1 2.2,-3.1 1.3,-4.8 -1,-1.7 -3.1,-2.2 -4.8,-1.3 l -2.5,1.5 c -1.6,1 -2.2,3.1 -1.2,4.8 z"
   id="path3"
   style="fill:#3a110f;fill-opacity:1" /><path
   class="st0"
   d="m 299.12643,344.67895 c -1,-1.7 -3.1,-2.2 -4.8,-1.3 -1.7,1 -2.2,3.1 -1.3,4.8 l 1.5,2.5 c 0.6,1.1 1.8,1.8 3,1.8 0.6,0 1.2,-0.2 1.7,-0.5 1.7,-1 2.2,-3.1 1.3,-4.8 z"
   id="path4" /><path
   class="st0"
   d="m 146.02643,303.67895 -2.5,1.5 c -1.7,1 -2.2,3.1 -1.3,4.8 0.6,1.1 1.8,1.8 3,1.8 0.6,0 1.2,-0.2 1.7,-0.5 l 2.5,-1.5 c 1.7,-1 2.2,-3.1 1.3,-4.8 -0.9,-1.7 -3,-2.3 -4.7,-1.3 z"
   id="path5"
   style="fill:#3a110f;fill-opacity:1" /><path
   class="st0"
   d="m 149.52643,195.07895 -2.5,-1.5 c -1.7,-1 -3.8,-0.4 -4.8,1.3 -1,1.7 -0.4,3.8 1.3,4.8 l 2.5,1.5 c 0.6,0.3 1.2,0.5 1.7,0.5 1.2,0 2.4,-0.6 3,-1.8 1.1,-1.7 0.5,-3.8 -1.2,-4.8 z"
   id="path6"
   style="fill:#3a110f;fill-opacity:1" /><path
   class="st0"
   d="m 299.32643,152.77895 c -1.7,-1 -3.8,-0.4 -4.8,1.3 l -1.5,2.5 c -1,1.7 -0.4,3.8 1.3,4.8 0.6,0.3 1.2,0.5 1.7,0.5 1.2,0 2.4,-0.6 3,-1.8 l 1.5,-2.5 c 1,-1.7 0.5,-3.8 -1.2,-4.8 z"
   id="path7"
   style="fill:#3a110f;fill-opacity:1" /><path
   class="st0"
   d="m 340.12643,305.07895 -2.5,-1.5 c -1.7,-1 -3.8,-0.4 -4.8,1.3 -1,1.7 -0.4,3.8 1.3,4.8 l 2.5,1.5 c 0.6,0.3 1.2,0.5 1.7,0.5 1.2,0 2.4,-0.6 3,-1.8 1,-1.7 0.5,-3.8 -1.2,-4.8 z"
   id="path8" /><path
   class="st0"
   d="m 189.32643,343.37895 c -1.7,-1 -3.8,-0.4 -4.8,1.3 l -1.5,2.5 c -1,1.7 -0.4,3.8 1.3,4.8 0.6,0.3 1.2,0.5 1.7,0.5 1.2,0 2.4,-0.6 3,-1.8 l 1.5,-2.5 c 1,-1.7 0.4,-3.8 -1.2,-4.8 z"
   id="path9"
   style="fill:#3a110f;fill-opacity:1" /><path
   class="st0"
   d="m 241.82643,154.17895 c 1.9,0 3.5,-1.6 3.5,-3.5 v -17.4 c 0,-1.9 -1.6,-3.5 -3.5,-3.5 -1.9,0 -3.5,1.6 -3.5,3.5 v 17.4 c 0,2 1.6,3.5 3.5,3.5 z"
   id="path10"
   style="fill:#3a110f;fill-opacity:1" /><path
   class="st0"
   d="m 340.02643,252.37895 c 0,1.9 1.6,3.5 3.5,3.5 h 17.4 c 1.9,0 3.5,-1.6 3.5,-3.5 0,-1.9 -1.6,-3.5 -3.5,-3.5 h -17.4 c -2,0 -3.5,1.6 -3.5,3.5 z"
   id="path11"
   style="fill:#3a110f;fill-opacity:1" /><path
   class="st0"
   d="m 241.82643,350.57895 c -1.9,0 -3.5,1.6 -3.5,3.5 v 17.4 c 0,1.9 1.6,3.5 3.5,3.5 1.9,0 3.5,-1.6 3.5,-3.5 v -17.4 c 0,-2 -1.6,-3.5 -3.5,-3.5 z"
   id="path12" /><path
   class="st0"
   d="m 143.62643,252.37895 c 0,-1.9 -1.6,-3.5 -3.5,-3.5 h -17.4 c -1.9,0 -3.5,1.6 -3.5,3.5 0,1.9 1.6,3.5 3.5,3.5 h 17.4 c 2,0 3.5,-1.6 3.5,-3.5 z"
   id="path13"
   style="fill:#3a110f;fill-opacity:1" /><path
   class="st0"
   d="m 276.32643,186.47895 c -1.7,-0.9 -3.8,-0.2 -4.7,1.5 l -32.9,62.8 c 0,0 0,0.1 0,0.1 -0.1,0.1 -0.1,0.2 -0.1,0.4 0,0.1 -0.1,0.2 -0.1,0.3 0,0.1 0,0.2 -0.1,0.3 0,0.1 0,0.2 0,0.4 0,0 0,0.1 0,0.1 0,0.1 0,0.1 0,0.2 0,0.1 0,0.2 0,0.4 0,0.1 0,0.2 0.1,0.3 0,0.1 0.1,0.2 0.1,0.3 0,0.1 0.1,0.2 0.1,0.3 0,0.1 0.1,0.2 0.2,0.3 0.1,0.1 0.1,0.2 0.2,0.3 0.1,0.1 0.1,0.2 0.2,0.3 0.1,0.1 0.2,0.2 0.2,0.2 0.1,0.1 0.2,0.1 0.3,0.2 0.1,0.1 0.2,0.1 0.3,0.2 0.1,0 0.1,0.1 0.1,0.1 0,0 0.1,0 0.1,0 0.2,0.1 0.4,0.1 0.5,0.2 0.1,0 0.1,0 0.2,0.1 0.2,0.1 0.5,0.1 0.7,0.1 0,0 0,0 0,0 0,0 0,0 0,0 h 30.7 c 1.9,0 3.5,-1.6 3.5,-3.5 0,-1.9 -1.6,-3.5 -3.5,-3.5 h -24.9 l 30.2,-57.7 c 1,-1.7 0.3,-3.8 -1.4,-4.7 z"
   id="path14"
   style="fill:#3a110f;fill-opacity:1" /><path
   class="st0"
   d="m 241.82643,91.278953 c -88.8,0 -161.099996,72.299997 -161.099996,161.099997 0,88.8 72.199996,161.1 161.099996,161.1 88.9,0 161.1,-72.2 161.1,-161.1 0,-88.9 -72.3,-161.099997 -161.1,-161.099997 z m 0,308.199997 c -81.1,0 -147.099996,-66 -147.099996,-147.1 0,-81.1 65.999996,-147.1 147.099996,-147.1 81.1,0 147.1,66 147.1,147.1 0,81.1 -66,147.1 -147.1,147.1 z"
   id="path15"
   style="fill:none;stroke:url(#radialGradient42);stroke-width:12.8;stroke-dasharray:none" />

<g
   id="g26"
   transform="translate(-264.59654,48.211328)"
   style="fill:#641e1e;fill-opacity:1;stroke:#faf5e1;stroke-width:3.2;stroke-dasharray:none;stroke-opacity:1"><path
     style="fill:#641e1e;fill-opacity:1;stroke:#faf5e1;stroke-width:3.2;stroke-dasharray:none;stroke-opacity:1"
     d="m 549.11403,396.40295 c 0.61092,2.10513 1.56234,4.54024 2.81942,6.63604 1.06898,1.78124 2.3066,3.32695 3.41653,4.28892 1.10911,0.96075 1.96771,1.2364 2.37308,1.2364 h 129.72118 c 0.40537,0 1.26397,-0.27484 2.3735,-1.2364 1.10992,-0.96197 2.34714,-2.50768 3.41653,-4.28892 1.25667,-2.0958 2.20851,-4.53091 2.81941,-6.63604 H 549.11363 Z"
     id="path26" /><path
     style="fill:#641e1e;fill-opacity:1;stroke:#faf5e1;stroke-width:3.2;stroke-dasharray:none;stroke-opacity:1"
     d="m 682.08846,292.80639 c -0.0754,3.71003 -0.2643,7.80436 -0.59671,12.18447 11.30722,1.48369 20.09908,11.20466 20.09908,22.90309 0,12.71834 -10.38823,23.10659 -23.10659,23.10659 -1.77839,0 -3.50894,-0.20959 -5.17425,-0.59388 -1.18045,3.89974 -2.50361,7.76908 -3.98892,11.55734 2.92116,0.78036 5.99149,1.19789 9.16317,1.19789 19.52102,0 35.26795,-15.74693 35.26795,-35.26794 0,-18.30407 -13.8449,-33.2897 -31.66413,-35.08756 z"
     id="path25" /><path
     style="fill:#641e1e;fill-opacity:1;stroke:#faf5e1;stroke-width:3.2;stroke-dasharray:none;stroke-opacity:1"
     d="m 561.49025,292.626 c 0.57969,25.92317 7.67909,72.73791 30.28463,96.48013 h 61.61756 c 22.60553,-23.74222 29.70534,-70.55696 30.28462,-96.48013 z"
     id="path24" /><path
     style="fill:#672020;fill-opacity:1;stroke:#faf5e1;stroke-width:3.2;stroke-dasharray:none;stroke-opacity:1"
     d="m 655.01395,224.117 c 0,0 -20.22433,15.16116 -19.45818,25.94423 0.65024,9.14941 17.98869,10.40405 19.45818,19.45818 0.77428,4.77212 -6.48606,12.97212 -6.48606,12.97212 0,0 19.45818,-10.28567 19.45818,-19.45818 0,-9.1725 -17.35021,-10.53093 -19.45818,-19.45817 -1.57084,-6.65389 6.48606,-19.45818 6.48606,-19.45818 z"
     id="path23" /><path
     style="fill:#672020;fill-opacity:1;stroke:#faf5e1;stroke-width:3.2;stroke-dasharray:none;stroke-opacity:1"
     d="m 622.58367,224.117 c 0,0 -20.22436,15.16116 -19.45819,25.94423 0.65022,9.14941 17.98867,10.40405 19.45819,19.45818 0.77426,4.77212 -6.48607,12.97212 -6.48607,12.97212 0,0 19.45817,-10.28567 19.45817,-19.45818 0,-9.1725 -17.35021,-10.53093 -19.45817,-19.45817 -1.57084,-6.65389 6.48607,-19.45818 6.48607,-19.45818 z"
     id="path22" /><path
     style="fill:#672020;fill-opacity:1;stroke:#faf5e1;stroke-width:3.2;stroke-dasharray:none;stroke-opacity:1"
     d="m 590.15336,224.117 c 0,0 -20.22434,15.16116 -19.45818,25.94423 0.65023,9.14941 17.98868,10.40405 19.45818,19.45818 0.77427,4.77212 -6.48606,12.97212 -6.48606,12.97212 0,0 19.45818,-10.28567 19.45818,-19.45818 0,-9.1725 -17.35021,-10.53093 -19.45818,-19.45817 -1.57085,-6.65389 6.48606,-19.45818 6.48606,-19.45818 z"
     id="path1-7" /></g><text
   xml:space="preserve"
   style="font-weight:bold;font-size:115.2px;line-height:0px;font-family:'Futura Md BT';-inkscape-font-specification:'Futura Md BT, Bold';letter-spacing:0px;word-spacing:0px;fill:#641e1e;fill-opacity:1;stroke-width:0.64"
   x="505.914"
   y="243.56792"
   id="text1"><tspan
     sodipodi:role="line"
     id="tspan1"
     style="font-size:115.2px;fill:#641e1e;fill-opacity:1;stroke-width:0.64"
     x="505.914"
     y="243.56792">serBAR</tspan></text><text
   xml:space="preserve"
   style="font-weight:bold;font-size:61.6259px;line-height:1;font-family:'Futura Md BT';-inkscape-font-specification:'Futura Md BT, Bold';letter-spacing:0px;word-spacing:0px;fill:#641e1e;fill-opacity:1;stroke-width:0.616259"
   x="523.81256"
   y="314.6499"
   id="text2"
   transform="scale(0.96290541,1.0385236)"><tspan
     sodipodi:role="line"
     style="font-size:61.6259px;line-height:1;fill:#641e1e;fill-opacity:1;stroke-width:0.616259"
     x="523.81256"
     y="314.6499"
     id="tspan3">gestione turni</tspan></text><text
   xml:space="preserve"
   style="font-weight:bold;font-size:66.5053px;line-height:1;font-family:'Futura Md BT';-inkscape-font-specification:'Futura Md BT, Bold';letter-spacing:0px;word-spacing:0px;fill:#641e1e;fill-opacity:1;stroke-width:0.665053"
   x="486.76685"
   y="406.466"
   id="text5"
   transform="scale(1.0391459,0.96232877)"><tspan
     sodipodi:role="line"
     style="font-size:66.5053px;line-height:1;fill:#641e1e;fill-opacity:1;stroke-width:0.665053"
     x="486.76685"
     y="406.466"
     id="tspan5">servizio bar</tspan></text></svg>
